<?xml version="1.0" encoding="UTF-8"?>
<svg id="Layer_1" xmlns="http://www.w3.org/2000/svg" width="1600" height="580" version="1.1" viewBox="0 0 1600 580">
  <!-- Generator: Adobe Illustrator 29.7.0, SVG Export Plug-In . SVG Version: 2.1.1 Build 138)  -->
  <path d="M1567.811594,79.040521h-324.541887c-6.958741-27.76624-32.117249-48.393562-62.009568-48.393562H470.15833c-64.097053,0-125.694086,23.522548-173.444134,66.235538-7.5292,6.735243-8.172715,18.298028-1.437472,25.827228,6.734456,7.528413,18.296453,8.172715,25.826441,1.437472,41.033708-36.704753,93.968893-56.919935,149.055165-56.919935h711.101809c15.078879,0,27.345828,12.267737,27.345828,27.347404v392.6613c0,15.078879-12.266949,27.345828-27.345828,27.345828H470.15833c-55.085485,0-108.021457-20.214394-149.05674-56.919147-7.530776-6.737606-19.092773-6.091729-25.826441,1.438259-6.734456,7.529988-6.090153,19.092773,1.439047,25.827228,47.750835,42.71299,109.347869,66.235538,173.444134,66.235538h711.101809c29.892319,0,55.050828-20.627717,62.009568-48.393562h324.541887V79.040521ZM1531.229716,466.188231h-286.04187V115.620824h286.04187v350.567407Z" fill="#231f20"/>
  <rect x="1400.880191" y="148.317492" width="96.787125" height="96.787125" fill="#231f20"/>
  <rect x="1400.880191" y="336.705718" width="96.787125" height="96.787125" fill="#231f20"/>
  <path d="M153.271078,290.904921c0-58.27864,23.635183-115.33799,64.844538-156.546558,8.035663-8.03645,8.035663-21.064275,0-29.100725-8.035663-8.035663-21.063487-8.035663-29.100725,0-48.869306,48.870094-76.897244,116.536014-76.897244,185.647283,0,69.112056,28.027938,136.777976,76.897244,185.647283,4.018619,4.018619,9.283309,6.027141,14.550363,6.027141,5.265478,0,10.532531-2.008522,14.549575-6.027141,8.03645-8.035663,8.03645-21.063487.000788-29.09915-41.209355-41.210143-64.844538-98.269492-64.844538-156.548133Z" fill="#231f20"/>
  <path d="M95.61626,406.490235c-15.262403-36.846531-23.00112-75.734665-23.00112-115.585314s7.738717-78.738783,23.00112-115.584526c15.261616-36.845743,37.288405-69.81622,65.466786-97.995388,8.035663-8.035663,8.035663-21.064275-.000788-29.099937-8.035663-8.035663-21.064275-8.03645-29.099937.000788-32.018989,32.018989-57.046747,69.481467-74.386986,111.345364-17.341026,41.864685-26.133626,86.051378-26.133626,131.333701s8.7926,89.469804,26.133626,131.333701c17.340239,41.863897,42.367997,79.326374,74.386986,111.346151,4.018619,4.018619,9.283309,6.027141,14.550363,6.027141,5.265478,0,10.532531-2.008522,14.549575-6.027141,8.03645-8.035663,8.03645-21.063487.000788-29.09915-28.17838-28.179168-50.20517-61.148858-65.466786-97.995388Z" fill="#231f20"/>
  <path d="M233.927015,290.904921c0-37.046595,15.024531-73.318137,41.220382-99.513988,8.03645-8.03645,8.03645-21.064275,0-29.100725-8.035663-8.035663-21.062699-8.035663-29.099937,0-33.85659,33.85659-53.273877,80.734703-53.273877,128.614713,0,47.881586,19.418074,94.759699,53.274664,128.614713,4.017831,4.018619,9.283309,6.027141,14.549575,6.027141s10.532531-2.008522,14.550363-6.027141c8.035663-8.035663,8.034875-21.063487-.000788-29.09915-26.195851-26.195851-41.220382-62.467393-41.220382-99.515564Z" fill="#231f20"/>
  <circle cx="351.038805" cy="290.905217" r="80.655937" fill="#231f20"/>
</svg>